<svg xmlns="http://www.w3.org/2000/svg" width="14" height="14" viewBox="0 0 14 14">
    <g fill="none" fill-rule="evenodd">
        <path d="M-1-1h16v16H-1z"/>
        <path fill="#141029" fill-rule="nonzero" d="M8.611.533a6.665 6.665 0 1 1-3.226 12.935A6.665 6.665 0 0 1 8.611.533zM6.724 2.656l-.3 1.202a24.47 24.47 0 0 1-.466-.11v-.004L4.95 3.492l-.195.781s.543.125.531.132c.297.074.35.27.341.426l-.82 3.292c-.037.09-.129.225-.336.174.007.01-.532-.133-.532-.133L3.576 9l.952.237.522.135-.303 1.215.73.183.3-1.203c.2.054.394.104.583.151l-.299 1.197.732.183.303-1.214c1.247.236 2.185.141 2.58-.987.318-.908-.016-1.432-.672-1.774.477-.11.837-.424.933-1.074.133-.887-.542-1.364-1.466-1.682l.3-1.201-.732-.183-.291 1.17c-.193-.048-.39-.093-.586-.138l.293-1.177-.73-.183zm-.307 4.422c.496.124 2.086.369 1.85 1.316-.227.908-1.756.417-2.252.294l.402-1.61zm.548-2.198c.413.103 1.742.295 1.528 1.157-.207.826-1.48.407-1.893.304l.365-1.46z"/>
    </g>
</svg>
