<svg xmlns="http://www.w3.org/2000/svg" width="48" height="48" viewBox="0 0 48 48">
    <path fill="#141029" fill-rule="nonzero" d="M29.803.718c12.86 3.206 20.684 16.23 17.479 29.088-3.206 12.857-16.23 20.682-29.09 17.475C5.337 44.076-2.488 31.053.719 18.197 3.923 5.338 16.947-2.487 29.803.718zm-6.792 7.645l-1.08 4.324a88.11 88.11 0 0 1-1.681-.395l.003-.013-3.632-.907-.701 2.812s1.954.448 1.913.476c1.066.266 1.26.972 1.227 1.531l-2.955 11.85c-.131.325-.462.81-1.207.626.026.039-1.915-.477-1.915-.477l-1.307 3.014 3.427.854c.638.16 1.263.327 1.878.485l-1.09 4.375 2.63.656 1.08-4.329c.718.195 1.416.375 2.098.545l-1.075 4.309 2.633.656 1.09-4.367c4.49.85 7.868.507 9.29-3.555 1.145-3.27-.058-5.156-2.42-6.386 1.72-.397 3.016-1.528 3.362-3.866.478-3.193-1.954-4.91-5.279-6.055l1.079-4.326-2.634-.657-1.05 4.212c-.692-.172-1.403-.335-2.11-.496l1.058-4.24-2.632-.656zM21.903 24.28c1.785.445 7.51 1.327 6.659 4.738-.814 3.27-6.32 1.502-8.105 1.059l1.446-5.797zm1.972-7.911c1.487.37 6.275 1.062 5.501 4.165-.742 2.974-5.325 1.463-6.812 1.092l1.311-5.257z"/>
</svg>
