<svg xmlns="http://www.w3.org/2000/svg" width="20" height="20" viewBox="0 0 20 20">
    <g fill="none" fill-rule="evenodd">
        <path d="M-2-2h24v24H-2z"/>
        <path fill="#141029" fill-rule="nonzero" d="M10 0c5.523 0 10 4.477 10 10s-4.477 10-10 10S0 15.523 0 10 4.477 0 10 0zm5.164 6.146H6.288l-.636 1.906h8.042l-1.27 3.896h-8.04l-.636 1.906h8.918c.266-.008.528-.058.778-.15.25-.142.536-.286.778-.486.236-.186.45-.4.636-.636.154-.231.285-.477.392-.734l1.178-3.704c.107-.244.141-.513.098-.776a1.436 1.436 0 0 0-.192-.636.91.91 0 0 0-.486-.436 1.435 1.435 0 0 0-.684-.15zm-6.342 2.97H4.09l-.636 1.762h4.78l.588-1.762z"/>
    </g>
</svg>
