<svg xmlns="http://www.w3.org/2000/svg" width="48" height="48" viewBox="0 0 48 48">
    <path fill="#0BF" fill-rule="nonzero" d="M24 0c13.255 0 24 10.745 24 24S37.255 48 24 48 0 37.255 0 24 10.745 0 24 0zm12.394 14.75H15.09l-1.526 4.575h19.3l-3.047 9.35H10.522L8.995 33.25h21.403a5.912 5.912 0 0 0 1.868-.36c.6-.341 1.286-.687 1.867-1.167a9.185 9.185 0 0 0 1.526-1.526c.37-.556.685-1.146.941-1.762l2.827-8.89a3.297 3.297 0 0 0 .235-1.862 3.448 3.448 0 0 0-.46-1.526 2.185 2.185 0 0 0-1.167-1.047 3.444 3.444 0 0 0-1.641-.36zm-15.221 7.128H9.816l-1.526 4.23h11.472l1.41-4.23z"/>
</svg>
