<svg xmlns="http://www.w3.org/2000/svg" width="32" height="28" viewBox="0 0 32 28">
    <defs>
        <linearGradient id="a" x1="100.961%" x2=".002%" y1="49.994%" y2="49.994%">
            <stop offset="9%" stop-color="#6DC1D6"/>
            <stop offset="31%" stop-color="#72C6D7"/>
            <stop offset="61%" stop-color="#589AC5"/>
            <stop offset="100%" stop-color="#3864AF"/>
        </linearGradient>
        <linearGradient id="b" x1="45.237%" x2="61.906%" y1="107.56%" y2="-.785%">
            <stop offset="47%" stop-color="#FFDF7F"/>
            <stop offset="57%" stop-color="#FFBE6B"/>
            <stop offset="69%" stop-color="#FF9E58"/>
            <stop offset="80%" stop-color="#FF884A"/>
            <stop offset="91%" stop-color="#FF7A42"/>
            <stop offset="100%" stop-color="#FF753F"/>
        </linearGradient>
        <linearGradient id="c" x1="73.764%" x2="39.021%" y1="45.317%" y2="57.661%">
            <stop offset="1%" stop-color="#E670A7"/>
            <stop offset="12%" stop-color="#CB65A2"/>
            <stop offset="31%" stop-color="#A2559B"/>
            <stop offset="50%" stop-color="#824895"/>
            <stop offset="68%" stop-color="#6C3F90"/>
            <stop offset="85%" stop-color="#5E3A8E"/>
            <stop offset="100%" stop-color="#59388D"/>
        </linearGradient>
        <linearGradient id="d" x1="10.011%" x2="83.427%" y1="60.266%" y2="30.199%">
            <stop offset="0%" stop-color="#15ADFF"/>
            <stop offset="6%" stop-color="#40A3D4"/>
            <stop offset="13%" stop-color="#6D99A7"/>
            <stop offset="21%" stop-color="#949080"/>
            <stop offset="30%" stop-color="#B5885F"/>
            <stop offset="38%" stop-color="#D08244"/>
            <stop offset="48%" stop-color="#E57D2F"/>
            <stop offset="59%" stop-color="#F47A20"/>
            <stop offset="72%" stop-color="#FC7818"/>
            <stop offset="92%" stop-color="#FF7715"/>
        </linearGradient>
        <linearGradient id="e" x1="21.281%" x2="78.719%" y1="90.937%" y2="9.063%">
            <stop offset="0%" stop-color="#55398D"/>
            <stop offset="100%" stop-color="#C05B9D"/>
        </linearGradient>
        <linearGradient id="f" x1="-.023%" x2="99.97%" y1="49.998%" y2="49.994%">
            <stop offset="0%" stop-color="#A3D6D9"/>
            <stop offset="52%" stop-color="#34A4DD"/>
            <stop offset="56%" stop-color="#349DD8"/>
            <stop offset="74%" stop-color="#367EC2"/>
            <stop offset="89%" stop-color="#386BB4"/>
            <stop offset="100%" stop-color="#3864AF"/>
        </linearGradient>
    </defs>
    <g fill="none" fill-rule="evenodd">
        <path d="M0-2h32v32H0z"/>
        <g fill-rule="nonzero">
            <path fill="url(#a)" d="M26.155 11.843a.31.31 0 0 1 .256-.117l.028-.01c.05-.038.103-.076.156-.112a13.383 13.383 0 0 0-3.684-6.898C17.655-.547 9.142-.43 3.89 4.823c-5.253 5.252-4.727 14.002.525 19.255 5.253 5.252 13.243 4.905 18.496-.35a13.508 13.508 0 0 0 1.605-1.938 7.143 7.143 0 0 1-.445-.972 7.591 7.591 0 0 1-.452-2.862c-.09-.65-.056-1.31.098-1.947a.292.292 0 0 1 .059-.12c.006-.029.012-.058.02-.086.052-.188.129-.368.227-.536.051-.203.122-.4.21-.589.107-.384.255-.756.44-1.11.045-.088.094-.18.149-.273a.275.275 0 0 1 .094-.157c.31-.5.735-1.015 1.24-1.295zm-7.277 7.85A7.747 7.747 0 1 1 7.923 8.738a7.747 7.747 0 0 1 10.955 10.955z"/>
            <path fill="url(#b)" d="M27.874 7.35a2.851 2.851 0 1 1 2.228 5.244v.006a7.751 7.751 0 0 0-4.721 7.841l-5.641.468c-.299-3.428.666-6.966 3.053-9.81a13.392 13.392 0 0 1 5.081-3.748z"/>
            <path fill="url(#c)" d="M22.505 10.228l.007-.008a2.851 2.851 0 1 1 4.667 3.276c-.884 1.186-1.132 2.194-1.186 2.92-.058.811-.028.86-.08 2.063-.04.93-.31 1.73-.54 2.158-.677 1.26-3.387 1.233-5.08-.387a16.305 16.305 0 0 1-.594-1.294 1.11 1.11 0 0 1-.015-.375c.008-.086.008-.086.023-.319.031-.51.048-1.077.248-1.927.041-.182.086-.38.164-.668.168-.617.356-1.144.589-1.798.003 0 .835-2.473 1.797-3.64z"/>
            <path fill="url(#d)" d="M.913 9.67a13.474 13.474 0 0 0-.83 3.932l-.021.479a13.45 13.45 0 0 0 11.67 13.646c.643.024 2.053.172 3.432-.009 1.564-.205 3.087-.749 3.397-.854.316-.129.63-.27.939-.423.684-.372 1.702-1.041 2.328-1.477.26-.182.695-.563 1.191-1.059a13.807 13.807 0 0 0 2.385-3.23c.172-.388.246-.812.217-1.236-.106-1.363-1.361-2.576-2.646-2.664a2.85 2.85 0 0 0-2.634 1.358c-.31.437-.654.85-1.027 1.235-.341.35-1.91 1.92-3.772 2.51-3.234 1.028-6.433-1.18-6.851-1.477C7.015 19.468.913 9.669.913 9.669z"/>
            <circle cx="26.7" cy="2.693" r="2.693" fill="url(#e)"/>
            <path fill="url(#f)" d="M19.662 18.91c-.007.011-.002-.077-.018-.058-1.472 1.992-3.572 2.686-3.912 2.794-.103.032-1.198.35-2.283.35a7.747 7.747 0 1 1 7.416-9.865c.008.027.153.648.208.718.058-.156.097-.234.164-.387.068-.153.15-.408.24-.549v-.004l.14-.31s-.008-.015-.085-.339c-.064-.266-.069-.296-.07-.305A10.609 10.609 0 1 0 .4 12.805c.03 6.376 5.8 10.584 10.657 10.559 4.828-.026 7.96-3.655 8.44-4.238"/>
        </g>
    </g>
</svg>
